<?xml version="1.0" encoding="UTF-8" standalone="no"?>
<!-- Created with Arkyan's SVGCensus script -->

<svg
   xmlns:dc="http://purl.org/dc/elements/1.1/"
   xmlns:cc="http://creativecommons.org/ns#"
   xmlns:rdf="http://www.w3.org/1999/02/22-rdf-syntax-ns#"
   xmlns:svg="http://www.w3.org/2000/svg"
   xmlns="http://www.w3.org/2000/svg"
   xmlns:sodipodi="http://sodipodi.sourceforge.net/DTD/sodipodi-0.dtd"
   xmlns:inkscape="http://www.inkscape.org/namespaces/inkscape"
   version="1.0"
   width="256"
   height="256"
   id="svg6665"
   sodipodi:version="0.32"
   inkscape:version="0.48.3.1 r9886"
   sodipodi:docname="Alameda_County_California_Incorporated_and_Unincorporated_areas_Oakland_Highlighted.svg"
   inkscape:output_extension="org.inkscape.output.svg.inkscape"
   sodipodi:modified="true">
  <title
     id="title3084">Oakland</title>
  <metadata
     id="metadata6754">
    <rdf:RDF>
      <cc:Work
         rdf:about="">
        <dc:format>image/svg+xml</dc:format>
        <dc:type
           rdf:resource="http://purl.org/dc/dcmitype/StillImage" />
        <dc:title>Oakland</dc:title>
        <dc:date>28-12-2012</dc:date>
        <dc:creator>
          <cc:Agent>
            <dc:title>Arkyan; Jose Luis Cercós Pita</dc:title>
          </cc:Agent>
        </dc:creator>
        <dc:rights>
          <cc:Agent>
            <dc:title>CC-BY-SA-2.5-2.0-1.0</dc:title>
          </cc:Agent>
        </dc:rights>
        <dc:publisher>
          <cc:Agent>
            <dc:title>Wikimedia Commons; Oakland</dc:title>
          </cc:Agent>
        </dc:publisher>
        <cc:license
           rdf:resource="http://creativecommons.org/licenses/by-sa/3.0/" />
      </cc:Work>
      <cc:License
         rdf:about="http://creativecommons.org/licenses/by-sa/3.0/">
        <cc:permits
           rdf:resource="http://creativecommons.org/ns#Reproduction" />
        <cc:permits
           rdf:resource="http://creativecommons.org/ns#Distribution" />
        <cc:requires
           rdf:resource="http://creativecommons.org/ns#Notice" />
        <cc:requires
           rdf:resource="http://creativecommons.org/ns#Attribution" />
        <cc:permits
           rdf:resource="http://creativecommons.org/ns#DerivativeWorks" />
        <cc:requires
           rdf:resource="http://creativecommons.org/ns#ShareAlike" />
      </cc:License>
    </rdf:RDF>
  </metadata>
  <defs
     id="defs6752" />
  <sodipodi:namedview
     inkscape:window-height="722"
     inkscape:window-width="1366"
     inkscape:pageshadow="2"
     inkscape:pageopacity="0.0"
     guidetolerance="10.0"
     gridtolerance="10.0"
     objecttolerance="10.0"
     borderopacity="1.0"
     bordercolor="#666666"
     pagecolor="#ffffff"
     id="base"
     width="256px"
     height="550px"
     inkscape:zoom="1.3709091"
     inkscape:cx="1.9627748"
     inkscape:cy="120.96832"
     inkscape:window-x="0"
     inkscape:window-y="0"
     inkscape:current-layer="svg6665"
     showgrid="false"
     inkscape:window-maximized="1" />
  <path
     inkscape:connector-curvature="0"
     id="path3876"
     d="m 111.90625,16.09375 0.25,4.75 0.84375,13.625 0.15625,0.40625 0.125,4.3125 0.15625,1.40625 0,1.25 0.25,3.34375 0,0.5625 0.15625,1.78125 0,0.5625 1.25,1.125 0.84375,0.5625 6.40625,-0.15625 0.6875,6 -7.375,0.5625 -9.1875,0.96875 -1.40625,0 L 104.53125,57 l -2.9375,-2.21875 -4.03125,0.5625 -1.40625,0.125 -4.03125,0.4375 -2.625,0.53125 0.125,1.40625 -0.6875,2.90625 0.40625,1 -1.9375,0.8125 -6.125,-1.09375 -5.5625,-3.21875 -2.375,0.15625 -0.125,-0.5625 -2.65625,0.84375 0.96875,3.59375 0.28125,1.25 0.84375,2.9375 0.96875,4.4375 0.5625,2.25 0.40625,1.53125 0.84375,-0.15625 1.6875,-0.5625 0.25,0.84375 5.03125,0 0.5625,0.5625 -0.28125,0.6875 -0.5625,1.53125 -0.6875,2.65625 -1.28125,4.4375 0.5625,1.6875 -0.5625,-0.15625 -2.0625,-0.6875 -3.90625,-1.125 -8.21875,-3.1875 -8.75,-3.34375 -0.5625,5 -2.21875,3.21875 -10.84375,0.8125 -5.59375,4.3125 -9.3125,15.875 -0.40625,0.5625 -1.96875,12.53125 0.15625,0.125 19.75,5.96875 2.09375,0.28125 16.84375,2.5 10,-1.65625 8.625,2.375 0.96875,0.8125 5.4375,4.0625 10.03125,4.71875 1.09375,-1.53125 1.8125,-1.53125 4.03125,0.6875 4.1875,3.34375 1.09375,3.0625 0,4.46875 7.9375,7.09375 6.28125,3.46875 4.71875,5.84375 1.125,11.6875 -0.84375,1.65625 -0.84375,4.1875 -0.84375,3.34375 -0.28125,2.21875 1.40625,0.40625 -0.40625,15.875 -1.125,1.8125 0.40625,4.71875 -1.65625,-0.40625 -7.65625,10 -9.59375,-8.625 -2.5,-2.625 -1.25,1.25 3.0625,5.96875 23.90625,20.1875 7.375,8.46875 9.1875,1.125 L 145.5625,229.9375 156,226.75 l 5.4375,-3.75 3.75,-1.6875 -4.75,-5.125 -1.25,-0.5625 -0.28125,-1.25 -0.40625,-0.28125 0.15625,-2.65625 4.15625,-0.96875 1.8125,-2.21875 5.15625,3.46875 1.375,0.6875 1.40625,0.28125 2.625,-0.125 3.625,-0.84375 4.1875,-2.5 0.125,0 -4.03125,-3.90625 0.28125,-0.40625 4.15625,-0.15625 -1.375,-4.03125 5.71875,-3.3125 1.25,2.21875 3.59375,-1.96875 1.8125,-0.6875 2.9375,-0.96875 4.875,-2.09375 1.9375,-0.28125 0.6875,-0.6875 0.84375,-1.53125 0.5625,0.84375 3.59375,4.875 0.4375,0.28125 1.09375,1.9375 0.4375,1.9375 0.5625,0 0.25,-0.28125 0.5625,1.40625 0.5625,2.21875 -0.40625,0.28125 0.125,0.5625 1.53125,-0.96875 2.5,-3.0625 2.09375,0.8125 1.53125,-0.28125 0,1.125 -1.8125,2.21875 1.40625,0.71875 3.46875,2.21875 3.0625,0.40625 1.25,-0.84375 3.625,-3.875 3.75,-5.84375 -0.84375,-14.625 -2.34375,-6.375 -7.53125,-16.84375 -3.0625,-4.3125 -4.59375,-7.53125 0.5625,-0.53125 -0.6875,-1 -0.6875,0.4375 -8.09375,-11 1.8125,-3.46875 -1.09375,-1.125 -1,0.96875 -6.8125,-2.90625 -0.28125,-5.03125 -5.125,-0.125 -3.0625,-4.03125 -1.6875,-0.28125 -0.125,-1.65625 -2.21875,-2.375 -0.4375,-1.40625 0,-0.8125 -2.09375,-0.71875 -3.46875,1 0.28125,2.90625 0.96875,1.53125 0.6875,-0.125 0.15625,0.53125 -0.28125,2.09375 -1.9375,-0.96875 -4.59375,-2.9375 0.28125,-1.09375 -1.25,-0.5625 -0.84375,0.84375 -0.96875,-0.6875 0.28125,-0.28125 1.65625,-3.78125 0.84375,-1.09375 L 179.5,107.5 l -0.53125,-4.84375 -1.8125,-2.25 -4.3125,-4.15625 -4.1875,-1.40625 -0.6875,-3.46875 0.125,-3.75 -0.5625,-0.84375 1.125,-4.875 1.53125,-2.625 -0.125,-2.53125 -4.1875,-2.625 -5.15625,-4.46875 -1.375,-1.375 0.5625,-0.5625 -5.84375,-6.6875 -2.25,-3.59375 -2.34375,-0.5625 -2.375,-0.5625 -2.65625,-4.875 -0.40625,-0.40625 L 143.75,50.59375 142.90625,49.5 135.125,40.4375 137.21875,37.65625 140,35.71875 139.03125,32.25 l -3.75,-4.46875 -2.375,-3.75 -1.8125,-1.125 -9.46875,-4.03125 -0.96875,-0.40625 -1.8125,-0.5625 -1.09375,0.4375 -1.53125,0.96875 -4.3125,-3.21875 z m 17.65625,63.875 0.84375,0.96875 0.84375,0.40625 1.65625,1.96875 1.9375,4.03125 4.75,5.28125 0.84375,0.5625 5.96875,4.46875 -2.21875,2.21875 -1.40625,4.03125 -0.8125,0.96875 -0.28125,0.15625 -1.25,0 -3.34375,-1.125 -2.9375,-0.8125 -2.09375,-0.5625 -6.25,-1.96875 -1.25,-0.28125 L 118.84375,98.75 113.5625,96.8125 113,96.25 112.3125,95.84375 110.5,93.875 l -1.96875,-2.625 1.40625,-2.09375 0.6875,-1.53125 1.9375,-1.25 1,-0.96875 0.6875,-0.84375 0.6875,-0.96875 0.28125,0.125 5.84375,-0.96875 1.25,-0.40625 7.25,-2.375 z"
     style="fill:#000000;fill-opacity:0.5;fill-rule:evenodd;stroke:none" />
  <path
     style="fill:#ff0000;fill-opacity:1;fill-rule:evenodd;stroke:#000000;stroke-width:1.39132261px;stroke-linecap:butt;stroke-linejoin:miter;stroke-opacity:1"
     d="m 101.90625,8.09375 0.25,4.75 0.84375,13.625 0.15625,0.40625 0.125,4.3125 0.15625,1.40625 0,1.25 0.25,3.34375 0,0.5625 0.15625,1.78125 0,0.5625 1.25,1.125 0.84375,0.5625 6.40625,-0.15625 0.6875,6 -7.375,0.5625 -9.1875,0.96875 -1.40625,0 L 94.53125,49 l -2.9375,-2.21875 -4.03125,0.5625 -1.40625,0.125 -4.03125,0.4375 -2.625,0.53125 0.125,1.40625 -0.6875,2.90625 0.40625,1 -1.9375,0.8125 -6.125,-1.09375 -5.5625,-3.21875 -2.375,0.15625 -0.125,-0.5625 -2.65625,0.84375 0.96875,3.59375 0.28125,1.25 0.84375,2.9375 0.96875,4.4375 0.5625,2.25 0.40625,1.53125 0.84375,-0.15625 1.6875,-0.5625 0.25,0.84375 5.03125,0 0.5625,0.5625 -0.28125,0.6875 -0.5625,1.53125 -0.6875,2.65625 -1.28125,4.4375 0.5625,1.6875 -0.5625,-0.15625 -2.0625,-0.6875 -3.90625,-1.125 -8.21875,-3.1875 -8.75,-3.34375 -0.5625,5 -2.21875,3.21875 -10.84375,0.8125 -5.59375,4.3125 -9.3125,15.875 -0.40625,0.5625 -1.96875,12.53125 0.15625,0.125 19.75,5.96875 2.09375,0.28125 16.84375,2.5 10,-1.65625 8.625,2.375 0.96875,0.8125 5.4375,4.0625 10.03125,4.71875 1.09375,-1.53125 1.8125,-1.53125 4.03125,0.6875 4.1875,3.34375 1.09375,3.0625 0,4.46875 7.9375,7.09375 6.28125,3.46875 4.71875,5.84375 1.125,11.6875 -0.84375,1.65625 -0.84375,4.1875 -0.84375,3.34375 -0.28125,2.21875 1.40625,0.40625 -0.40625,15.875 -1.125,1.8125 0.40625,4.71875 -1.65625,-0.40625 -7.65625,10 -9.59375,-8.625 -2.5,-2.625 -1.25,1.25 3.0625,5.96875 23.90625,20.1875 7.375,8.46875 9.1875,1.125 L 135.5625,221.9375 146,218.75 l 5.4375,-3.75 3.75,-1.6875 -4.75,-5.125 -1.25,-0.5625 -0.28125,-1.25 -0.40625,-0.28125 0.15625,-2.65625 4.15625,-0.96875 1.8125,-2.21875 5.15625,3.46875 1.375,0.6875 1.40625,0.28125 2.625,-0.125 3.625,-0.84375 4.1875,-2.5 0.125,0 -4.03125,-3.90625 0.28125,-0.40625 4.15625,-0.15625 -1.375,-4.03125 5.71875,-3.3125 1.25,2.21875 3.59375,-1.96875 1.8125,-0.6875 2.9375,-0.96875 4.875,-2.09375 1.9375,-0.28125 0.6875,-0.6875 0.84375,-1.53125 0.5625,0.84375 3.59375,4.875 0.4375,0.28125 1.09375,1.9375 0.4375,1.9375 0.5625,0 0.25,-0.28125 0.5625,1.40625 0.5625,2.21875 -0.40625,0.28125 0.125,0.5625 1.53125,-0.96875 2.5,-3.0625 2.09375,0.8125 1.53125,-0.28125 0,1.125 -1.8125,2.21875 1.40625,0.71875 3.46875,2.21875 3.0625,0.40625 1.25,-0.84375 3.625,-3.875 3.75,-5.84375 -0.84375,-14.625 -2.34375,-6.375 -7.53125,-16.84375 -3.0625,-4.3125 -4.59375,-7.53125 0.5625,-0.53125 -0.6875,-1 -0.6875,0.4375 -8.09375,-11 1.8125,-3.46875 -1.09375,-1.125 -1,0.96875 -6.8125,-2.90625 -0.28125,-5.03125 -5.125,-0.125 -3.0625,-4.03125 -1.6875,-0.28125 -0.125,-1.65625 -2.21875,-2.375 -0.4375,-1.40625 0,-0.8125 -2.09375,-0.71875 -3.46875,1 0.28125,2.90625 0.96875,1.53125 0.6875,-0.125 0.15625,0.53125 -0.28125,2.09375 -1.9375,-0.96875 -4.59375,-2.9375 0.28125,-1.09375 -1.25,-0.5625 -0.84375,0.84375 -0.96875,-0.6875 0.28125,-0.28125 1.65625,-3.78125 0.84375,-1.09375 L 169.5,99.5 l -0.53125,-4.84375 -1.8125,-2.25 -4.3125,-4.15625 -4.1875,-1.40625 -0.6875,-3.46875 0.125,-3.75 -0.5625,-0.84375 1.125,-4.875 1.53125,-2.625 -0.125,-2.53125 -4.1875,-2.625 -5.15625,-4.46875 -1.375,-1.375 0.5625,-0.5625 -5.84375,-6.6875 -2.25,-3.59375 -2.34375,-0.5625 -2.375,-0.5625 -2.65625,-4.875 -0.40625,-0.40625 L 133.75,42.59375 132.90625,41.5 125.125,32.4375 127.21875,29.65625 130,27.71875 129.03125,24.25 l -3.75,-4.46875 -2.375,-3.75 -1.8125,-1.125 -9.46875,-4.03125 -0.96875,-0.40625 -1.8125,-0.5625 -1.09375,0.4375 -1.53125,0.96875 -4.3125,-3.21875 z m 17.65625,63.875 0.84375,0.96875 0.84375,0.40625 1.65625,1.96875 1.9375,4.03125 4.75,5.28125 0.84375,0.5625 5.96875,4.46875 -2.21875,2.21875 -1.40625,4.03125 -0.8125,0.96875 -0.28125,0.15625 -1.25,0 -3.34375,-1.125 -2.9375,-0.8125 -2.09375,-0.5625 -6.25,-1.96875 -1.25,-0.28125 L 108.84375,90.75 103.5625,88.8125 103,88.25 102.3125,87.84375 100.5,85.875 98.53125,83.25 99.9375,81.15625 100.625,79.625 l 1.9375,-1.25 1,-0.96875 0.6875,-0.84375 0.6875,-0.96875 0.28125,0.125 5.84375,-0.96875 1.25,-0.40625 7.25,-2.375 z"
     id="53000"
     inkscape:connector-curvature="0" />
</svg>
